Coordinates
nRows=140
nColumns=2
inDegrees=yes
endheader
time	ankle_angle_r	
2.99981	  9.307861	
3.0623	  9.338379	
3.1248	  9.277344	
3.1873	  9.414673	
3.24979	  9.368896	
3.31229	  9.338379	
3.37478	  9.445190	
3.43728	  9.262085	
3.49978	  9.338379	
3.56227	  9.338379	
3.62477	  9.277344	
3.68726	  9.414673	
3.74976	  9.384155	
3.81226	  9.368896	
3.87475	  9.536743	
3.93725	  9.399414	
3.99974	  9.384155	
4.06224	  9.490967	
4.12474	  9.323120	
4.18723	  9.536743	
4.24973	  9.429932	
4.31222	  9.399414	
4.37472	  9.445190	
4.43722	  9.307861	
4.49971	  9.262085	
4.56221	  9.353638	
4.6247	  9.277344	
4.6872	  9.399414	
4.7497	  9.399414	
4.81219	  9.307861	
4.87469	  9.353638	
4.93718	  9.338379	
4.99968	  9.262085	
5.06218	  9.307861	
5.12467	  9.307861	
5.18717	  9.307861	
5.24966	  9.414673	
5.31216	  9.414673	
5.37466	  9.490967	
5.43715	  9.460449	
5.49965	  9.368896	
5.56214	  9.353638	
5.62464	  9.399414	
5.68714	  9.384155	
5.74963	  9.490967	
5.81213	  9.368896	
5.87462	  9.445190	
5.93712	  9.368896	
5.99962	  9.277344	
6.06211	  9.353638	
6.12461	  9.338379	
6.1871	  9.262085	
6.2496	  9.414673	
6.3121	  9.323120	
6.37459	  9.414673	
6.43709	  9.353638	
6.49958	  9.292603	
6.56208	  9.338379	
6.62458	  9.292603	
6.68707	  9.292603	
6.74957	  9.429932	
6.81206	  9.368896	
6.87456	  9.490967	
6.93706	  9.429932	
6.99955	  9.368896	
7.06205	  9.429932	
7.12454	  9.414673	
7.18704	  9.414673	
7.24954	  9.490967	
7.31203	  9.445190	
7.37453	  9.445190	
7.43702	  9.414673	
7.49952	  9.262085	
7.56202	  9.368896	
7.62451	  9.262085	
7.68701	  9.292603	
7.7495	  9.384155	
7.812	  9.353638	
7.8745	  9.414673	
7.93699	  9.414673	
7.99949	  9.262085	
8.06198	  9.323120	
8.12448	  9.292603	
8.18698	  9.307861	
8.24947	  9.445190	
8.31197	  9.429932	
8.37446	  9.429932	
8.43696	  9.475708	
8.49946	  9.368896	
8.56195	  9.399414	
8.62445	  9.414673	
8.68694	  9.399414	
8.74944	  9.536743	
8.81194	  9.384155	
8.87443	  9.399414	
8.93693	  9.399414	
8.99942	  9.246826	
9.06192	  9.384155	
9.12442	  9.262085	
9.18691	  9.277344	
9.24941	  9.460449	
9.3119	  9.368896	
9.3744	  9.353638	
9.4369	  9.414673	
9.49939	  9.277344	
9.56189	  9.353638	
9.62438	  9.338379	
9.68688	  9.262085	
9.74938	  9.460449	
9.81187	  9.414673	
9.87437	  9.490967	
9.93686	  9.475708	
9.99936	  9.368896	
10.0619	  9.399414	
10.1244	  9.414673	
10.1868	  9.307861	
10.2493	  9.521484	
10.3118	  9.475708	
10.3743	  9.460449	
10.4368	  9.506226	
10.4993	  9.338379	
10.5618	  9.414673	
10.6243	  9.384155	
10.6868	  9.307861	
10.7493	  9.521484	
10.8118	  9.429932	
10.8743	  9.384155	
10.9368	  9.490967	
10.9993	  9.338379	
11.0618	  9.399414	
11.1243	  9.384155	
11.1868	  9.368896	
11.2493	  9.445190	
11.3118	  9.399414	
11.3743	  9.429932	
11.4368	  9.414673	
11.4993	  9.277344	
11.5618	  9.460449	
11.6243	  9.353638	
11.6868	  9.384155	
